<svg width="172" height="99" viewBox="0 0 172 99" fill="none" xmlns="http://www.w3.org/2000/svg">
<path d="M124.524 24.064C123.97 24.064 123.511 24.096 123.148 24.16C122.807 24.224 122.54 24.32 122.348 24.448C122.156 24.5547 122.028 24.6827 121.964 24.832C121.9 24.9813 121.868 25.152 121.868 25.344C121.847 25.3653 121.836 25.4827 121.836 25.696V45.472H120.94C118.572 42.2507 116.236 39.0613 113.932 35.904C111.628 32.7467 109.314 29.5573 106.988 26.336V42.432C106.988 43.1573 107.159 43.6587 107.5 43.936C107.863 44.2133 108.567 44.352 109.612 44.352V45.376H103.052V44.352C104.034 44.352 104.738 44.2027 105.164 43.904C105.527 43.584 105.708 43.0933 105.708 42.432V25.76C105.708 25.2267 105.516 24.832 105.132 24.576C104.77 24.2987 104.076 24.16 103.052 24.16V23.072H107.116C109.378 26.1013 111.618 29.0987 113.836 32.064C116.076 35.008 118.327 37.9947 120.588 41.024V25.76C120.588 25.12 120.396 24.6827 120.012 24.448C119.586 24.192 118.914 24.064 117.996 24.064V23.072H124.524V24.064ZM140.289 38.112C140.289 40.5013 139.606 42.4107 138.241 43.84C136.939 45.2693 135.275 45.984 133.249 45.984C131.201 45.984 129.526 45.2693 128.225 43.84C126.859 42.4107 126.177 40.5013 126.177 38.112C126.177 35.7227 126.859 33.8133 128.225 32.384C129.526 30.9547 131.201 30.24 133.249 30.24C135.275 30.24 136.939 30.9547 138.241 32.384C139.606 33.8133 140.289 35.7227 140.289 38.112ZM138.113 38.112C138.113 36.1493 137.643 34.5387 136.705 33.28C135.83 32.0213 134.678 31.392 133.249 31.392C131.841 31.392 130.667 32.0213 129.729 33.28C128.811 34.5387 128.353 36.1493 128.353 38.112C128.353 40.0533 128.801 41.664 129.697 42.944C130.614 44.1813 131.798 44.8 133.249 44.8C134.635 44.8 135.787 44.1813 136.705 42.944C137.643 41.6853 138.113 40.0747 138.113 38.112ZM150.916 42.24C151.023 42.3253 151.119 42.4 151.204 42.464C151.311 42.528 151.418 42.592 151.524 42.656C151.14 43.552 150.618 44.2987 149.956 44.896C149.21 45.6 148.399 45.952 147.524 45.952C146.372 45.952 145.498 45.536 144.9 44.704C144.73 44.4053 144.591 44.064 144.484 43.68C144.378 43.296 144.324 42.8693 144.324 42.4V31.808H141.828V30.784C142.98 30.784 143.834 30.3467 144.388 29.472C145.007 28.4693 145.316 27.04 145.316 25.184H146.276V30.56H150.468V31.808H146.276V42.624C146.276 43.7547 146.874 44.32 148.068 44.32C149.028 44.32 149.978 43.6267 150.916 42.24ZM166.365 41.536C166.472 41.6213 166.578 41.7067 166.685 41.792C166.813 41.8773 166.93 41.9627 167.037 42.048C166.525 42.816 165.96 43.456 165.341 43.968C164.722 44.48 164.061 44.9067 163.357 45.248C162.397 45.7173 161.362 45.952 160.253 45.952C158.141 45.952 156.413 45.28 155.069 43.936C153.64 42.5067 152.925 40.576 152.925 38.144C152.925 35.7973 153.608 33.9093 154.973 32.48C156.317 31.008 158.024 30.272 160.093 30.272C162.162 30.272 163.794 30.8693 164.989 32.064C166.269 33.28 166.909 35.04 166.909 37.344C164.925 37.408 162.973 37.4827 161.053 37.568C159.133 37.632 157.17 37.696 155.165 37.76C155.165 37.8453 155.154 37.9307 155.133 38.016C155.133 38.08 155.133 38.1547 155.133 38.24C155.133 39.136 155.25 39.9467 155.485 40.672C155.741 41.3973 156.104 42.048 156.573 42.624C157.554 43.904 158.93 44.544 160.701 44.544C161.64 44.544 162.621 44.2987 163.645 43.808C164.114 43.5307 164.573 43.2107 165.021 42.848C165.49 42.464 165.938 42.0267 166.365 41.536ZM155.229 36.544C156.829 36.5013 158.408 36.448 159.965 36.384C161.522 36.32 163.101 36.2667 164.701 36.224C164.68 34.816 164.242 33.6853 163.389 32.832C162.514 31.8933 161.416 31.424 160.093 31.424C158.813 31.424 157.693 31.936 156.733 32.96C155.837 33.8987 155.336 35.0933 155.229 36.544ZM125.274 56.064C124.72 56.064 124.261 56.096 123.898 56.16C123.557 56.224 123.29 56.32 123.098 56.448C122.906 56.5547 122.778 56.6827 122.714 56.832C122.65 56.9813 122.618 57.152 122.618 57.344C122.597 57.3653 122.586 57.4827 122.586 57.696V77.472H121.69C119.322 74.2507 116.986 71.0613 114.682 67.904C112.378 64.7467 110.064 61.5573 107.738 58.336V74.432C107.738 75.1573 107.909 75.6587 108.25 75.936C108.613 76.2133 109.317 76.352 110.362 76.352V77.376H103.802V76.352C104.784 76.352 105.488 76.2027 105.914 75.904C106.277 75.584 106.458 75.0933 106.458 74.432V57.76C106.458 57.2267 106.266 56.832 105.882 56.576C105.52 56.2987 104.826 56.16 103.802 56.16V55.072H107.866C110.128 58.1013 112.368 61.0987 114.586 64.064C116.826 67.008 119.077 69.9947 121.338 73.024V57.76C121.338 57.12 121.146 56.6827 120.762 56.448C120.336 56.192 119.664 56.064 118.746 56.064V55.072H125.274V56.064ZM140.303 73.536C140.409 73.6213 140.516 73.7067 140.623 73.792C140.751 73.8773 140.868 73.9627 140.975 74.048C140.463 74.816 139.897 75.456 139.279 75.968C138.66 76.48 137.999 76.9067 137.295 77.248C136.335 77.7173 135.3 77.952 134.191 77.952C132.079 77.952 130.351 77.28 129.007 75.936C127.577 74.5067 126.863 72.576 126.863 70.144C126.863 67.7973 127.545 65.9093 128.911 64.48C130.255 63.008 131.961 62.272 134.031 62.272C136.1 62.272 137.732 62.8693 138.927 64.064C140.207 65.28 140.847 67.04 140.847 69.344C138.863 69.408 136.911 69.4827 134.991 69.568C133.071 69.632 131.108 69.696 129.103 69.76C129.103 69.8453 129.092 69.9307 129.071 70.016C129.071 70.08 129.071 70.1547 129.071 70.24C129.071 71.136 129.188 71.9467 129.423 72.672C129.679 73.3973 130.041 74.048 130.511 74.624C131.492 75.904 132.868 76.544 134.639 76.544C135.577 76.544 136.559 76.2987 137.583 75.808C138.052 75.5307 138.511 75.2107 138.959 74.848C139.428 74.464 139.876 74.0267 140.303 73.536ZM129.167 68.544C130.767 68.5013 132.345 68.448 133.903 68.384C135.46 68.32 137.039 68.2667 138.639 68.224C138.617 66.816 138.18 65.6853 137.327 64.832C136.452 63.8933 135.353 63.424 134.031 63.424C132.751 63.424 131.631 63.936 130.671 64.96C129.775 65.8987 129.273 67.0933 129.167 68.544ZM155.093 73.696C155.093 74.5707 154.848 75.3493 154.357 76.032C154.251 76.1387 154.144 76.2453 154.037 76.352C153.952 76.4587 153.856 76.5653 153.749 76.672C152.789 77.504 151.488 77.92 149.845 77.92C148.715 77.92 147.733 77.7387 146.901 77.376C146.795 77.3333 146.688 77.3013 146.581 77.28C146.496 77.28 146.4 77.28 146.293 77.28H145.973C145.739 77.3867 145.515 77.472 145.301 77.536C145.088 77.6213 144.864 77.7067 144.629 77.792C144.331 76.9813 144.021 76.192 143.701 75.424C143.381 74.6347 143.072 73.8347 142.773 73.024C142.859 72.96 142.933 72.896 142.997 72.832C143.083 72.768 143.179 72.7147 143.285 72.672C144.203 73.952 145.077 74.8907 145.909 75.488C147.232 76.3413 148.533 76.768 149.813 76.768C150.816 76.768 151.659 76.4587 152.341 75.84C152.896 75.2853 153.173 74.6133 153.173 73.824C153.173 73.312 152.971 72.8533 152.565 72.448C152.48 72.384 152.373 72.3093 152.245 72.224C152.117 72.1387 151.968 72.0427 151.797 71.936C151.52 71.7653 151.157 71.5947 150.709 71.424C150.261 71.232 149.717 71.0293 149.077 70.816C148.075 70.4747 147.243 70.1653 146.581 69.888C145.92 69.5893 145.419 69.3013 145.077 69.024C143.797 68.2347 143.157 67.1893 143.157 65.888C143.157 64.6933 143.723 63.744 144.853 63.04C145.707 62.5067 146.773 62.24 148.053 62.24C149.163 62.24 150.304 62.4533 151.477 62.88C151.648 62.8373 151.829 62.7627 152.021 62.656C152.213 62.528 152.427 62.3787 152.661 62.208C152.96 62.976 153.259 63.7547 153.557 64.544C153.856 65.312 154.155 66.0907 154.453 66.88C154.347 66.9227 154.24 66.976 154.133 67.04C154.048 67.104 153.952 67.1573 153.845 67.2C153.312 66.176 152.597 65.344 151.701 64.704C150.379 63.8293 149.163 63.392 148.053 63.392C147.243 63.392 146.603 63.5307 146.133 63.808C145.429 64.192 145.077 64.8533 145.077 65.792C145.077 66.3893 145.387 66.9013 146.005 67.328C146.091 67.3707 146.176 67.4133 146.261 67.456C146.347 67.4987 146.443 67.5413 146.549 67.584C146.848 67.7547 147.221 67.936 147.669 68.128C148.117 68.32 148.619 68.5013 149.173 68.672C150.325 69.0347 151.275 69.3973 152.021 69.76C152.789 70.1013 153.376 70.4213 153.781 70.72C154.656 71.424 155.093 72.416 155.093 73.696ZM165.885 74.24C165.992 74.3253 166.088 74.4 166.173 74.464C166.28 74.528 166.386 74.592 166.493 74.656C166.109 75.552 165.586 76.2987 164.925 76.896C164.178 77.6 163.368 77.952 162.493 77.952C161.341 77.952 160.466 77.536 159.869 76.704C159.698 76.4053 159.56 76.064 159.453 75.68C159.346 75.296 159.293 74.8693 159.293 74.4V63.808H156.797V62.784C157.949 62.784 158.802 62.3467 159.357 61.472C159.976 60.4693 160.285 59.04 160.285 57.184H161.245V62.56H165.437V63.808H161.245V74.624C161.245 75.7547 161.842 76.32 163.037 76.32C163.997 76.32 164.946 75.6267 165.885 74.24Z" fill="black"/>
<rect opacity="0.38" x="16.39" width="84.2202" height="84.2202" rx="28" transform="rotate(11.2219 16.39 0)" fill="#764FA4"/>
<rect x="12.1484" y="10.3127" width="77.3812" height="77.3812" rx="27" transform="rotate(1.65664 12.1484 10.3127)" fill="#764FA4"/>
<path d="M64.4819 76.2217H36.1353C29.8735 76.2217 24.7966 71.1448 24.7966 64.883V36.5364C24.7966 30.2746 29.8735 25.1978 36.1353 25.1978H64.4819C70.7437 25.1978 75.8206 30.2746 75.8206 36.5364V64.883C75.8206 71.1448 70.7437 76.2217 64.4819 76.2217Z" fill="#FFF8EE"/>
<path d="M72.0409 73.3871L55.4326 63.0047L67.8059 41.5076L70.6718 41.7391L72.3574 38.4461L70.1833 37.3784L73.9307 30.8672L75.8205 35.5916V62.9934L74.8756 69.6076L72.0409 73.3871Z" fill="#F3E2CE"/>
<path d="M70.6425 26.925C70.6425 26.925 68.6044 30.4174 66.6314 33.9758C66.4595 34.2857 66.468 34.6684 66.6673 34.9613C67.307 35.9015 69.0163 37.8791 72.3565 38.4461C72.7477 38.5122 73.1398 38.3043 73.3241 37.9519C74.1225 36.4306 75.2715 34.195 75.4208 33.5459L70.6425 26.925Z" fill="#B5C4E0"/>
<path d="M38.025 62.9934C42.7495 62.9934 42.1353 61.1055 44.6392 61.1055C47.9057 61.1055 47.506 63.9382 52.2305 63.9382C54.6191 63.9382 55.7804 61.6979 55.7804 61.6979" stroke="#85CBF8" stroke-width="2" stroke-miterlimit="10" stroke-linecap="round" stroke-linejoin="round"/>
<path d="M40.8597 67.7178C40.3381 67.7178 39.9148 68.1411 39.9148 68.6627V70.5524C39.9148 71.074 40.3381 71.4973 40.8597 71.4973C41.3813 71.4973 41.8046 71.074 41.8046 70.5524V68.6627C41.8046 68.1411 41.3813 67.7178 40.8597 67.7178Z" fill="#8D6C9F"/>
<path d="M36.1352 67.7178C35.6136 67.7178 35.1903 68.1411 35.1903 68.6627V70.5524C35.1903 71.074 35.6136 71.4973 36.1352 71.4973C36.6568 71.4973 37.0801 71.074 37.0801 70.5524V68.6627C37.0801 68.1411 36.6568 67.7178 36.1352 67.7178Z" fill="#8D6C9F"/>
<path d="M31.4108 67.7178C30.8893 67.7178 30.4659 68.1411 30.4659 68.6627V70.5524C30.4659 71.074 30.8893 71.4973 31.4108 71.4973C31.9324 71.4973 32.3557 71.074 32.3557 70.5524V68.6627C32.3557 68.1411 31.9324 67.7178 31.4108 67.7178Z" fill="#8D6C9F"/>
<path d="M45.584 67.7178C45.0625 67.7178 44.6392 68.1411 44.6392 68.6627V70.5524C44.6392 71.074 45.0625 71.4973 45.584 71.4973C46.1056 71.4973 46.5289 71.074 46.5289 70.5524V68.6627C46.5289 68.1411 46.1056 67.7178 45.584 67.7178Z" fill="#8D6C9F"/>
<path d="M55.033 67.7178C54.5114 67.7178 54.0881 68.1411 54.0881 68.6627V70.5524C54.0881 71.074 54.5114 71.4973 55.033 71.4973C55.5546 71.4973 55.9779 71.074 55.9779 70.5524V68.6627C55.9779 68.1411 55.5546 67.7178 55.033 67.7178Z" fill="#8D6C9F"/>
<path d="M50.3085 67.7178C49.787 67.7178 49.3636 68.1411 49.3636 68.6627V70.5524C49.3636 71.074 49.787 71.4973 50.3085 71.4973C50.8301 71.4973 51.2534 71.074 51.2534 70.5524V68.6627C51.2534 68.1411 50.8301 67.7178 50.3085 67.7178Z" fill="#8D6C9F"/>
<path d="M69.2062 67.7178C68.6847 67.7178 68.2614 68.1411 68.2614 68.6627V70.5524C68.2614 71.074 68.6847 71.4973 69.2062 71.4973C69.7278 71.4973 70.1511 71.074 70.1511 70.5524V68.6627C70.1511 68.1411 69.7278 67.7178 69.2062 67.7178Z" fill="#8D6C9F"/>
<path d="M59.7574 67.7178C59.2358 67.7178 58.8125 68.1411 58.8125 68.6627V70.5524C58.8125 71.074 59.2358 71.4973 59.7574 71.4973C60.279 71.4973 60.7023 71.074 60.7023 70.5524V68.6627C60.7023 68.1411 60.279 67.7178 59.7574 67.7178Z" fill="#8D6C9F"/>
<path d="M64.4819 67.7178C63.9603 67.7178 63.537 68.1411 63.537 68.6627V70.5524C63.537 71.074 63.9603 71.4973 64.4819 71.4973C65.0035 71.4973 65.4268 71.074 65.4268 70.5524V68.6627C65.4268 68.1411 65.0035 67.7178 64.4819 67.7178Z" fill="#8D6C9F"/>
<path d="M64.4819 76.2217H36.1353C29.8735 76.2217 24.7966 71.1448 24.7966 64.883V36.5364C24.7966 30.2746 29.8735 25.1978 36.1353 25.1978H64.4819C70.7437 25.1978 75.8206 30.2746 75.8206 36.5364V64.883C75.8206 71.1448 70.7437 76.2217 64.4819 76.2217Z" stroke="#8D6C9F" stroke-width="2" stroke-miterlimit="10"/>
<path d="M54.0881 46.9302H59.7575" stroke="#85CBF8" stroke-width="2" stroke-miterlimit="10" stroke-linecap="round" stroke-linejoin="round"/>
<path d="M38.025 39.3711H63.537" stroke="#85CBF8" stroke-width="2" stroke-miterlimit="10" stroke-linecap="round" stroke-linejoin="round"/>
<path d="M71.0961 42.2058C67.3165 41.2609 64.4819 38.4263 64.4819 38.4263C59.4759 47.7249 53.8708 60.1927 55.9392 61.4541C57.8998 62.6485 66.0183 50.724 71.0961 42.2058Z" fill="#B5C4E0"/>
<path d="M38.025 55.4343H55.9779" stroke="#85CBF8" stroke-width="2" stroke-miterlimit="10" stroke-linecap="round" stroke-linejoin="round"/>
<path d="M70.6425 26.925C70.6425 26.925 68.3436 30.9559 66.3707 34.5144C66.1987 34.8243 66.2072 35.207 66.4066 35.4999C67.0463 36.4401 69.349 38.2505 72.3944 39.1982C72.7733 39.3163 73.1777 39.0565 73.3619 38.704C74.1604 37.1827 75.6174 34.3934 75.6174 34.3934" stroke="#8D6C9F" stroke-width="2" stroke-miterlimit="10"/>
<path d="M71.0961 42.2058C67.3165 41.2609 64.4819 38.4263 64.4819 38.4263C59.4759 47.7249 53.8708 60.1927 55.9392 61.4541C57.8998 62.6485 66.0183 50.724 71.0961 42.2058Z" stroke="#8D6C9F" stroke-width="2" stroke-miterlimit="10" stroke-linecap="round" stroke-linejoin="round"/>
<path d="M47.4739 46.9302H50.3085" stroke="#85CBF8" stroke-width="2" stroke-miterlimit="10" stroke-linecap="round" stroke-linejoin="round"/>
<path d="M38.025 46.9302H43.6943" stroke="#85CBF8" stroke-width="2" stroke-miterlimit="10" stroke-linecap="round" stroke-linejoin="round"/>
<path d="M54.9263 63.0047L55.9392 61.4541" stroke="#8D6C9F" stroke-width="2" stroke-miterlimit="10" stroke-linecap="round" stroke-linejoin="round"/>
<path d="M71.0961 42.2059L72.8687 38.8723" stroke="#8D6C9F" stroke-width="2" stroke-miterlimit="10"/>
<path d="M66.2497 35.241L64.4818 38.4262" stroke="#8D6C9F" stroke-width="2" stroke-miterlimit="10"/>
</svg>
