<svg width="200" height="200" viewBox="0 0 200 200" fill="none" xmlns="http://www.w3.org/2000/svg">
<rect opacity="0.38" x="33.1111" width="170.142" height="170.142" rx="28" transform="rotate(11.2219 33.1111 0)" fill="#764FA4"/>
<rect x="24.5422" y="20.8337" width="156.326" height="156.326" rx="27" transform="rotate(1.65664 24.5422 20.8337)" fill="#764FA4"/>
<path d="M130.266 153.983H73.0005C60.3504 153.983 50.0941 143.727 50.0941 131.077V73.8112C50.0941 61.1611 60.3504 50.9048 73.0005 50.9048H130.266C142.916 50.9048 153.173 61.1611 153.173 73.8112V131.077C153.173 143.727 142.916 153.983 130.266 153.983Z" fill="#FFF8EE"/>
<path d="M145.537 148.257L111.985 127.282L136.982 83.8536L142.771 84.3213L146.177 77.6689L141.785 75.5119L149.355 62.3579L153.173 71.9022V127.259L151.264 140.621L145.537 148.257Z" fill="#F3E2CE"/>
<path d="M142.712 54.394C142.712 54.394 138.595 61.4492 134.609 68.638C134.262 69.2641 134.279 70.0372 134.682 70.6289C135.974 72.5283 139.427 76.5235 146.175 77.6688C146.965 77.8024 147.757 77.3825 148.13 76.6705C149.743 73.5972 152.064 69.0808 152.365 67.7695L142.712 54.394Z" fill="#B5C4E0"/>
<path d="M76.8182 127.259C86.3626 127.259 85.1218 123.445 90.1803 123.445C96.7792 123.445 95.9718 129.168 105.516 129.168C110.342 129.168 112.688 124.642 112.688 124.642" stroke="#85CBF8" stroke-width="2" stroke-miterlimit="10" stroke-linecap="round" stroke-linejoin="round"/>
<path d="M82.5449 136.803C81.4912 136.803 80.636 137.659 80.636 138.712V142.53C80.636 143.584 81.4912 144.439 82.5449 144.439C83.5985 144.439 84.4537 143.584 84.4537 142.53V138.712C84.4537 137.659 83.5985 136.803 82.5449 136.803Z" fill="#8D6C9F"/>
<path d="M73.0005 136.803C71.9468 136.803 71.0917 137.659 71.0917 138.712V142.53C71.0917 143.584 71.9468 144.439 73.0005 144.439C74.0542 144.439 74.9094 143.584 74.9094 142.53V138.712C74.9094 137.659 74.0542 136.803 73.0005 136.803Z" fill="#8D6C9F"/>
<path d="M63.4562 136.803C62.4025 136.803 61.5474 137.659 61.5474 138.712V142.53C61.5474 143.584 62.4025 144.439 63.4562 144.439C64.5099 144.439 65.3651 143.584 65.3651 142.53V138.712C65.3651 137.659 64.5099 136.803 63.4562 136.803Z" fill="#8D6C9F"/>
<path d="M92.0892 136.803C91.0355 136.803 90.1803 137.659 90.1803 138.712V142.53C90.1803 143.584 91.0355 144.439 92.0892 144.439C93.1429 144.439 93.998 143.584 93.998 142.53V138.712C93.998 137.659 93.1429 136.803 92.0892 136.803Z" fill="#8D6C9F"/>
<path d="M111.178 136.803C110.124 136.803 109.269 137.659 109.269 138.712V142.53C109.269 143.584 110.124 144.439 111.178 144.439C112.231 144.439 113.087 143.584 113.087 142.53V138.712C113.087 137.659 112.231 136.803 111.178 136.803Z" fill="#8D6C9F"/>
<path d="M101.633 136.803C100.58 136.803 99.7246 137.659 99.7246 138.712V142.53C99.7246 143.584 100.58 144.439 101.633 144.439C102.687 144.439 103.542 143.584 103.542 142.53V138.712C103.542 137.659 102.687 136.803 101.633 136.803Z" fill="#8D6C9F"/>
<path d="M139.811 136.803C138.757 136.803 137.902 137.659 137.902 138.712V142.53C137.902 143.584 138.757 144.439 139.811 144.439C140.864 144.439 141.72 143.584 141.72 142.53V138.712C141.72 137.659 140.864 136.803 139.811 136.803Z" fill="#8D6C9F"/>
<path d="M120.722 136.803C119.668 136.803 118.813 137.659 118.813 138.712V142.53C118.813 143.584 119.668 144.439 120.722 144.439C121.776 144.439 122.631 143.584 122.631 142.53V138.712C122.631 137.659 121.776 136.803 120.722 136.803Z" fill="#8D6C9F"/>
<path d="M130.266 136.803C129.213 136.803 128.358 137.659 128.358 138.712V142.53C128.358 143.584 129.213 144.439 130.266 144.439C131.32 144.439 132.175 143.584 132.175 142.53V138.712C132.175 137.659 131.32 136.803 130.266 136.803Z" fill="#8D6C9F"/>
<path d="M130.266 153.983H73.0005C60.3504 153.983 50.0941 143.727 50.0941 131.077V73.8112C50.0941 61.1611 60.3504 50.9048 73.0005 50.9048H130.266C142.916 50.9048 153.173 61.1611 153.173 73.8112V131.077C153.173 143.727 142.916 153.983 130.266 153.983Z" stroke="#8D6C9F" stroke-width="2" stroke-miterlimit="10"/>
<path d="M109.269 94.8086H120.722" stroke="#85CBF8" stroke-width="2" stroke-miterlimit="10" stroke-linecap="round" stroke-linejoin="round"/>
<path d="M76.8182 79.5376H128.358" stroke="#85CBF8" stroke-width="2" stroke-miterlimit="10" stroke-linecap="round" stroke-linejoin="round"/>
<path d="M143.628 85.2641C135.993 83.3553 130.266 77.6287 130.266 77.6287C120.153 96.4138 108.83 121.601 113.008 124.15C116.969 126.562 133.37 102.473 143.628 85.2641Z" fill="#B5C4E0"/>
<path d="M76.8182 111.988H113.087" stroke="#85CBF8" stroke-width="2" stroke-miterlimit="10" stroke-linecap="round" stroke-linejoin="round"/>
<path d="M142.712 54.394C142.712 54.394 138.068 62.5373 134.082 69.726C133.735 70.3521 133.752 71.1252 134.155 71.717C135.447 73.6163 140.099 77.2737 146.251 79.1883C147.017 79.4269 147.834 78.9019 148.206 78.1899C149.819 75.1167 152.762 69.4817 152.762 69.4817" stroke="#8D6C9F" stroke-width="2" stroke-miterlimit="10"/>
<path d="M143.628 85.2641C135.993 83.3553 130.266 77.6287 130.266 77.6287C120.153 96.4138 108.83 121.601 113.008 124.15C116.969 126.562 133.37 102.473 143.628 85.2641Z" stroke="#8D6C9F" stroke-width="2" stroke-miterlimit="10" stroke-linecap="round" stroke-linejoin="round"/>
<path d="M95.9069 94.8086H101.633" stroke="#85CBF8" stroke-width="2" stroke-miterlimit="10" stroke-linecap="round" stroke-linejoin="round"/>
<path d="M76.8182 94.8086H88.2714" stroke="#85CBF8" stroke-width="2" stroke-miterlimit="10" stroke-linecap="round" stroke-linejoin="round"/>
<path d="M110.962 127.282L113.008 124.15" stroke="#8D6C9F" stroke-width="2" stroke-miterlimit="10" stroke-linecap="round" stroke-linejoin="round"/>
<path d="M143.628 85.2643L147.209 78.5298" stroke="#8D6C9F" stroke-width="2" stroke-miterlimit="10"/>
<path d="M133.838 71.1941L130.266 77.6289" stroke="#8D6C9F" stroke-width="2" stroke-miterlimit="10"/>
</svg>
